<?xml version="1.0" standalone="no"?>
<!DOCTYPE svg PUBLIC "-//W3C//DTD SVG 20010904//EN"
 "http://www.w3.org/TR/2001/REC-SVG-20010904/DTD/svg10.dtd">
<svg version="1.0" xmlns="http://www.w3.org/2000/svg"
 width="2980.000000pt" height="1960.000000pt" viewBox="0 0 2980.000000 1960.000000"
 preserveAspectRatio="xMidYMid meet">
<metadata>
Created by potrace 1.16, written by Peter Selinger 2001-2019
</metadata>
<g transform="translate(0.000000,1960.000000) scale(0.100000,-0.100000)"
fill="#000000" stroke="none">
<path d="M18001 14195 c-143 -32 -304 -140 -375 -254 -65 -103 -71 -133 -68
-385 3 -243 7 -268 54 -300 55 -39 137 -4 170 71 19 42 20 58 13 217 -7 186 0
246 39 331 49 107 141 175 238 175 62 0 92 -12 160 -66 102 -80 171 -100 243
-70 104 44 94 191 -17 247 -92 47 -318 64 -457 34z"/>
<path d="M18020 13708 c-50 -25 -61 -54 -20 -51 216 16 244 25 180 58 -42 22
-108 19 -160 -7z"/>
<path d="M18530 13687 c-14 -7 -26 -20 -28 -30 -3 -15 6 -17 72 -18 42 -1 82
-2 89 -3 6 -1 12 8 12 19 0 39 -91 59 -145 32z"/>
<path d="M11925 13676 c-92 -29 -158 -86 -197 -171 -18 -40 -23 -68 -23 -136
l0 -85 -75 18 c-236 56 -527 -24 -707 -195 -133 -126 -183 -236 -183 -402 0
-114 17 -196 57 -281 l27 -59 6 180 c5 151 10 190 29 244 26 76 58 141 69 141
4 0 13 -19 20 -41 18 -58 64 -121 113 -157 45 -33 241 -116 302 -127 41 -8 48
-20 16 -30 -11 -4 -18 -12 -16 -18 5 -17 209 -27 222 -12 6 8 32 10 71 7 l62
-4 4 -102 c3 -85 8 -110 31 -157 30 -62 82 -121 128 -145 53 -27 59 -17 59
100 l0 105 42 12 c66 17 115 -1 139 -54 23 -52 25 -137 2 -184 -18 -39 -61
-70 -111 -79 l-34 -7 4 -127 c2 -71 6 -131 10 -135 11 -11 87 34 129 77 50 51
101 157 130 268 16 64 23 127 28 257 3 94 3 178 0 185 -9 17 -39 188 -39 219
0 13 -6 35 -14 49 -7 14 -27 51 -43 83 l-31 57 30 0 c70 0 169 85 214 184 25
54 26 66 22 157 -4 89 -9 107 -42 174 -38 76 -84 124 -156 160 -85 43 -213 57
-295 31z m-36 -467 c77 -44 162 -112 202 -162 24 -31 13 -23 -43 30 -42 39
-112 92 -155 117 -43 25 -74 46 -69 46 5 0 34 -14 65 -31z"/>
<path d="M4445 13607 c-70 -19 -134 -48 -251 -118 l-101 -59 -49 22 c-40 19
-66 23 -144 23 -83 -1 -103 -4 -158 -29 -67 -31 -114 -76 -158 -152 -15 -27
-32 -52 -37 -55 -5 -3 -8 -9 -8 -13 3 -15 -30 -64 -67 -99 -31 -31 -54 -42
-118 -58 -156 -39 -183 -68 -191 -207 -3 -48 -12 -99 -19 -114 -17 -32 -74
-67 -167 -102 -156 -59 -182 -111 -132 -269 14 -43 25 -90 25 -104 0 -56 -40
-112 -129 -184 -112 -90 -136 -125 -136 -200 0 -51 4 -63 48 -126 68 -100 64
-137 -30 -251 -24 -30 -46 -59 -51 -66 -5 -10 -40 -10 -162 0 -85 7 -174 13
-197 13 -41 1 -43 0 -54 -40 -8 -26 -21 -44 -35 -49 -33 -13 -48 -46 -36 -78
6 -15 13 -51 17 -79 l6 -52 -35 -15 c-36 -15 -51 -44 -44 -83 1 -11 -10 -34
-25 -53 -24 -28 -28 -41 -26 -79 2 -25 -3 -64 -9 -87 -16 -54 4 -131 64 -243
l44 -83 1 -512 c1 -516 5 -612 33 -788 37 -235 91 -348 200 -422 141 -96 330
-84 455 30 61 54 86 103 152 296 33 94 63 176 68 182 10 13 101 285 101 302 0
6 -163 71 -362 144 -200 73 -367 136 -372 140 -4 5 68 159 162 343 145 287
171 344 177 396 l7 61 -65 0 c-36 0 -68 3 -70 8 -3 4 -8 33 -12 65 l-8 59 60
57 c32 32 73 62 90 68 l31 11 6 -43 c8 -49 34 -78 68 -73 18 2 34 24 73 99 85
160 161 248 292 335 46 31 220 114 237 114 3 0 0 -17 -6 -37 -6 -21 -8 -66 -5
-100 5 -49 14 -74 43 -118 47 -70 41 -98 -28 -135 -79 -43 -91 -58 -86 -112 6
-53 14 -61 121 -131 43 -28 63 -48 75 -77 18 -41 32 -49 50 -27 26 31 24 65
-13 150 -34 78 -36 87 -24 113 11 22 29 34 77 51 99 33 132 74 132 162 0 38
-7 63 -29 98 -57 95 -52 115 50 177 73 45 30 42 500 30 l256 -7 6 24 c4 13 7
79 7 145 0 133 2 137 61 148 61 11 154 64 202 115 83 89 101 147 112 362 7
125 9 136 26 132 26 -7 66 37 79 88 7 26 10 88 8 154 -4 125 -21 170 -69 188
-16 6 -29 14 -29 17 0 4 25 17 55 29 31 13 80 46 110 73 96 88 133 201 101
312 -24 82 -71 125 -180 164 -120 44 -151 62 -231 133 -38 34 -90 71 -114 82
-56 25 -150 31 -216 14z m529 -893 c9 -20 19 -55 23 -79 l5 -43 -44 -3 -45 -4
4 75 c3 41 6 81 8 87 7 21 31 4 49 -33z m30 -176 c-13 -71 -25 -106 -45 -132
-17 -22 -24 -24 -35 -15 -11 9 -14 31 -12 88 3 81 8 87 75 90 20 1 22 -3 17
-31z m-2296 -1480 c24 -24 13 -38 -30 -38 -24 -1 -68 -9 -98 -20 -46 -15 -58
-16 -70 -5 -36 31 -100 23 -141 -17 -14 -14 -21 -11 -70 29 -30 25 -55 49 -57
54 -6 14 452 11 466 -3z m29 -10 c-3 -8 -6 -5 -6 6 -1 11 2 17 5 13 3 -3 4
-12 1 -19z m70 -187 c20 -12 13 -14 -12 -5 -17 7 -55 74 -55 96 1 7 12 -8 25
-34 14 -26 33 -52 42 -57z"/>
<path d="M18538 13535 c-31 -17 -40 -52 -10 -40 34 14 101 17 133 6 41 -14 49
-6 22 21 -28 27 -107 34 -145 13z"/>
<path d="M18033 13520 c-38 -23 -45 -46 -10 -33 12 4 47 8 77 8 30 0 65 -4 78
-8 34 -13 27 10 -10 33 -18 11 -49 20 -68 20 -19 0 -50 -9 -67 -20z"/>
<path d="M18350 13534 c0 -15 70 -217 110 -319 17 -43 29 -80 26 -82 -3 -3
-26 -8 -51 -10 -65 -8 -66 -23 -1 -23 44 0 58 4 70 21 17 24 13 37 -73 255
-48 121 -80 184 -81 158z"/>
<path d="M18118 13438 c-24 -20 -28 -44 -12 -67 19 -26 55 -27 77 -3 21 23 22
46 1 66 -19 19 -45 20 -66 4z"/>
<path d="M18616 13434 c-9 -8 -16 -24 -16 -34 0 -22 26 -50 46 -50 46 0 73 57
42 88 -17 17 -54 15 -72 -4z"/>
<path d="M17446 13348 c-23 -37 -29 -74 -16 -113 12 -38 51 -70 72 -62 8 3 6
6 -5 6 -24 1 -57 59 -57 99 0 42 15 71 43 82 l22 9 -22 0 c-13 1 -29 -9 -37
-21z"/>
<path d="M18220 13036 c0 -60 64 -116 134 -116 51 0 52 16 3 29 -56 14 -93 43
-108 86 -16 44 -29 45 -29 1z"/>
<path d="M20993 12616 c-98 -82 -142 -126 -126 -126 12 0 142 111 192 164 55
57 29 42 -66 -38z"/>
<path d="M10961 12647 c-33 -12 -61 -40 -50 -51 10 -10 162 9 166 21 9 26 -68
46 -116 30z"/>
<path d="M21070 12566 c-106 -93 -148 -136 -134 -136 11 0 198 163 223 194 35
42 -3 18 -89 -58z"/>
<path d="M18056 12582 c71 -113 203 -182 349 -182 l75 0 0 39 0 39 -72 7 c-96
10 -228 48 -306 90 l-63 33 17 -26z"/>
<path d="M21102 12487 c-107 -107 -133 -144 -58 -81 51 42 170 173 164 179 -2
2 -50 -42 -106 -98z"/>
<path d="M11418 12504 c-34 -18 -38 -39 -5 -30 49 15 97 18 126 8 36 -13 41 0
9 22 -28 20 -94 20 -130 0z"/>
<path d="M10941 12492 c-37 -18 -60 -53 -25 -36 11 5 52 9 92 9 39 0 72 4 72
8 0 10 -63 37 -87 37 -10 0 -33 -8 -52 -18z"/>
<path d="M11192 12421 c-47 -122 -94 -280 -90 -304 4 -28 66 -46 100 -29 20 9
17 11 -25 11 -31 1 -49 6 -53 15 -3 8 17 83 44 168 51 157 67 218 59 218 -3 0
-19 -35 -35 -79z"/>
<path d="M11401 12436 c-20 -24 -9 -59 23 -71 24 -8 31 -6 47 14 17 21 18 26
6 45 -17 26 -59 32 -76 12z"/>
<path d="M10936 12414 c-9 -8 -16 -20 -16 -25 0 -51 71 -69 92 -24 21 46 -40
86 -76 49z"/>
<path d="M18241 12176 l-12 -73 -47 -6 c-26 -4 -56 -9 -68 -12 -18 -6 -25 3
-53 65 -18 40 -34 71 -35 69 -2 -2 -38 -89 -81 -194 -42 -104 -78 -191 -80
-193 -1 -1 -62 54 -136 123 -201 189 -215 189 -29 1 91 -91 168 -166 171 -166
3 0 14 21 24 46 14 38 21 45 39 41 11 -3 49 -11 84 -18 34 -6 62 -15 62 -20 0
-4 7 -15 16 -24 15 -15 16 -63 5 -598 -6 -320 -14 -601 -17 -624 l-5 -43 -223
0 c-239 0 -246 -2 -246 -52 0 -49 42 -223 57 -231 7 -5 29 -38 47 -75 19 -37
42 -75 53 -84 28 -26 99 -48 153 -48 45 0 56 6 157 81 59 45 123 89 142 98 32
15 33 15 57 -12 13 -16 24 -36 24 -45 0 -9 -28 -41 -62 -72 -117 -104 -140
-129 -136 -147 6 -29 62 -18 267 48 189 62 210 64 259 33 37 -24 26 -43 -45
-76 -149 -67 -255 -120 -251 -124 3 -2 61 9 129 25 191 46 257 55 274 41 13
-11 15 -8 15 16 0 16 14 155 31 308 l32 279 -22 19 c-20 16 -42 18 -177 18
-151 0 -154 0 -159 23 -3 12 -50 288 -105 612 -55 325 -102 600 -105 612 -4
15 1 23 14 28 11 3 24 18 29 34 6 17 22 33 42 41 29 12 33 11 42 -3 8 -16 13
-14 52 12 48 33 186 177 186 194 0 6 -22 -14 -49 -44 -62 -70 -159 -145 -171
-133 -5 5 -36 78 -69 163 -34 85 -63 156 -64 158 -2 1 -9 -31 -16 -71z m45
-91 c-7 -19 -32 -19 -39 -1 -3 8 -1 32 5 53 l10 38 15 -38 c8 -20 13 -44 9
-52z m-228 30 c18 -38 21 -75 5 -75 -4 0 -65 30 -70 34 -5 4 30 86 37 86 3 0
16 -20 28 -45z m196 -1707 c15 -25 -3 -52 -37 -56 -34 -4 -58 38 -37 63 17 20
59 16 74 -7z"/>
<path d="M11355 12020 c-19 -42 -59 -73 -109 -86 -23 -6 -26 -8 -12 -16 46
-26 137 30 150 93 10 49 -8 55 -29 9z"/>
<path d="M23025 11644 c-16 -9 -53 -39 -81 -67 -28 -29 -74 -71 -102 -95 -69
-58 -96 -117 -96 -207 0 -120 61 -218 169 -272 70 -35 112 -69 130 -103 21
-40 19 -140 -5 -230 -33 -125 -22 -208 26 -198 12 2 24 18 32 43 18 59 62 95
115 95 64 -1 107 -44 107 -110 0 -44 -14 -67 -85 -135 -97 -94 -96 -137 8
-315 97 -164 265 -321 399 -372 59 -22 149 -23 193 -2 41 19 115 90 150 142
14 22 45 97 69 168 65 192 80 226 166 379 101 179 131 257 137 361 11 161 -59
294 -181 344 -48 20 -55 27 -90 96 -48 93 -136 186 -208 219 -30 14 -106 34
-170 44 -138 24 -198 46 -301 113 -130 83 -202 112 -282 115 -50 2 -79 -1
-100 -13z"/>
<path d="M6769 11489 c-8 -26 -21 -44 -35 -49 -33 -13 -48 -46 -35 -78 5 -15
15 -71 22 -124 l11 -98 270 0 c148 0 268 -4 266 -8 -1 -5 -27 -30 -57 -56 -53
-47 -55 -48 -70 -28 -37 46 -99 52 -150 13 -23 -18 -26 -18 -77 0 -66 24 -127
24 -165 2 -41 -25 -45 -43 -8 -43 63 0 169 -74 169 -119 0 -15 6 -36 14 -47
13 -17 11 -22 -22 -56 -29 -31 -43 -38 -74 -38 -37 0 -38 -1 -38 -34 0 -32
-23 -56 -320 -345 -317 -307 -529 -504 -562 -522 -14 -7 -21 -3 -35 24 l-18
34 -343 -108 c-189 -58 -345 -109 -347 -111 -8 -7 184 -409 212 -446 192 -252
557 -297 801 -99 28 23 281 314 563 647 282 333 557 655 612 715 69 75 110
130 131 175 29 62 31 72 34 213 l3 148 -31 29 c-22 21 -30 37 -30 63 0 26 -7
41 -26 56 -15 12 -33 21 -41 21 -12 0 -14 11 -8 63 3 34 11 72 17 84 13 27
-12 73 -41 73 -12 0 -21 9 -25 25 -8 31 -5 31 -271 49 -305 22 -282 24 -296
-25z m337 -476 c-11 -11 -17 4 -9 23 7 18 8 18 11 1 2 -10 1 -21 -2 -24z"/>
<path d="M11945 11360 c-27 -5 -203 -21 -390 -36 l-341 -27 -45 -111 -45 -111
-54 -8 c-86 -12 -230 -65 -307 -113 -86 -54 -102 -70 -553 -592 -290 -336
-360 -411 -380 -411 -16 -1 -218 106 -515 270 -270 149 -495 273 -501 276 -10
4 -374 -353 -374 -366 1 -8 537 -375 554 -379 6 -1 22 11 34 27 12 16 41 43
65 60 l44 30 324 10 c178 6 374 16 434 21 61 5 153 11 205 13 90 4 94 4 70
-12 -47 -30 -80 -69 -80 -94 0 -37 44 -74 280 -234 118 -81 242 -166 275 -190
62 -45 82 -50 129 -30 l28 12 -62 50 -62 50 34 7 c69 14 335 29 393 22 57 -6
63 -10 131 -75 l71 -69 122 0 122 0 -6 -82 c-3 -46 -10 -138 -14 -205 -4 -68
-9 -125 -12 -127 -2 -2 -56 4 -120 15 -76 12 -147 17 -210 14 -52 -2 -122 -4
-157 -4 -50 -1 -64 -4 -68 -18 -18 -53 -59 -126 -95 -167 l-41 -46 -73 0 c-41
0 -76 -4 -79 -8 -3 -5 3 -38 14 -73 33 -111 49 -171 71 -266 18 -80 23 -92 43
-95 19 -3 -50 -95 -489 -660 l-510 -658 -1177 0 -1178 0 0 -390 0 -390 470 0
470 0 0 -25 c0 -26 -636 -5670 -645 -5721 l-5 -31 -708 -8 c-389 -4 -795 -11
-902 -14 -107 -4 2018 -8 4722 -9 4614 -2 4917 -3 4911 -19 -4 -9 -35 -66 -70
-127 -35 -60 -63 -119 -63 -129 0 -25 29 -84 43 -90 7 -2 179 99 382 225 204
125 426 262 495 303 l125 76 54 170 c30 93 59 173 65 178 6 5 25 12 43 16 48
10 99 72 112 137 26 132 75 412 471 2648 231 1306 422 2385 425 2398 5 21 10
22 105 22 l100 0 -1 -107 c0 -60 -24 -1215 -53 -2568 -43 -1998 -50 -2466 -40
-2492 15 -39 40 -53 93 -53 l41 0 1 -242 c1 -134 3 -235 6 -226 6 22 -66 23
730 -7 366 -14 671 -24 677 -22 17 6 -103 80 -239 147 -66 33 -125 64 -130 68
-6 5 -22 12 -36 15 -43 11 -119 47 -119 57 0 6 -11 10 -24 10 -29 0 -111 34
-132 54 -9 9 -14 36 -14 74 l0 60 80 4 c67 3 83 7 102 26 22 21 23 32 26 177
3 134 6 154 20 158 14 4 14 5 2 6 -14 1 -15 24 -12 183 2 101 23 1192 47 2426
23 1234 45 2245 47 2248 3 2 879 3 1948 2 l1944 -3 -725 -108 c-398 -60 -764
-117 -814 -127 -195 -38 -370 -134 -504 -275 -112 -118 -186 -248 -231 -406
-30 -105 -39 -316 -16 -424 9 -44 178 -597 377 -1230 l360 -1150 -121 -1015
c-66 -558 -120 -1021 -120 -1027 0 -10 -172 -13 -825 -13 -550 0 -825 -3 -825
-10 0 -7 -240 -9 -727 -5 -2337 16 -2352 16 -2381 1 -24 -13 268 -15 2521 -16
2257 0 2547 2 2547 15 0 11 -11 15 -41 15 -41 0 -42 0 -37 33 3 17 45 348 94
735 49 386 92 702 95 702 4 0 10 -12 14 -27 3 -16 31 -106 61 -201 58 -182 56
-178 104 -158 12 5 19 -5 28 -40 15 -54 66 -111 109 -120 26 -5 33 -18 86
-149 40 -100 55 -149 50 -163 -8 -20 -94 -102 -108 -102 -3 0 -29 -25 -57 -55
-27 -30 -56 -55 -64 -55 -8 0 -14 -5 -14 -11 0 -7 -51 -64 -113 -128 -107
-110 -188 -211 -170 -211 5 0 301 116 658 258 446 178 653 256 658 248 11 -14
21 -41 -140 409 -75 209 -138 387 -140 396 -3 12 11 22 51 39 42 17 55 27 52
39 -12 38 -507 2573 -504 2577 2 2 183 -614 402 -1369 219 -755 400 -1375 403
-1379 2 -3 42 4 89 16 l86 23 9 -24 c12 -32 12 -33 -11 -33 -81 0 -11 -178 78
-196 27 -6 33 -16 86 -148 46 -115 55 -148 47 -167 -9 -25 -82 -90 -114 -102
-9 -4 -16 -11 -15 -16 4 -11 -86 -91 -101 -91 -6 0 -11 -5 -11 -11 0 -7 -47
-60 -104 -119 -98 -102 -193 -217 -185 -224 2 -2 290 111 639 250 349 140 640
254 647 254 7 0 14 -26 17 -67 13 -149 57 -570 62 -596 l6 -28 -1274 7 c-1129
5 -1278 4 -1313 -9 -36 -14 358 -16 3970 -16 2206 0 4030 4 4055 8 25 5 -263
9 -643 10 l-688 1 100 114 c56 63 101 117 101 120 0 3 -68 6 -151 6 -138 0
-150 1 -145 18 6 22 126 597 126 606 0 3 7 6 15 6 17 0 20 17 4 22 -8 3 14
126 66 373 42 204 79 378 81 388 5 15 19 17 115 17 l109 0 0 175 0 175 -464 0
-464 0 -6 48 c-40 316 -33 830 15 1105 l12 68 66 -128 c214 -413 512 -694 873
-821 135 -48 388 -86 388 -58 0 6 -5 54 -10 106 -7 65 -7 160 0 301 16 300 -5
452 -85 625 -46 101 -98 176 -180 263 -153 161 -356 263 -584 292 -112 14
-174 6 -199 -26 -13 -16 -26 -22 -40 -19 -11 3 -45 -1 -75 -10 -65 -19 -147
-88 -179 -150 -30 -58 -35 -170 -11 -261 18 -67 18 -73 1 -160 -32 -170 -43
-316 -43 -595 0 -239 13 -461 31 -553 l6 -27 -76 0 c-63 0 -75 3 -80 18 -12
43 -17 499 -7 710 18 382 53 676 117 985 34 163 104 422 141 522 l18 50 60 8
c163 20 219 37 354 101 171 82 223 93 504 106 229 10 400 33 537 72 41 12 83
21 93 20 9 0 17 3 17 7 0 4 19 13 43 20 80 24 232 92 250 113 27 32 21 70 -15
105 -42 38 -189 129 -341 208 -64 34 -114 65 -110 68 3 4 -3 7 -14 7 -11 0
-53 14 -93 30 -204 84 -473 120 -627 83 -18 -4 -23 -1 -23 13 -1 18 -2 18 -18
-1 -9 -12 -46 -31 -82 -44 -272 -97 -442 -342 -520 -748 -27 -140 -31 -156
-81 -298 -59 -172 -123 -431 -158 -645 -67 -402 -86 -682 -79 -1163 l6 -347
-79 0 -79 0 0 662 0 661 49 76 c187 292 293 650 291 985 -1 137 -20 247 -55
315 -50 99 -155 178 -251 189 l-44 5 0 175 0 174 35 79 c62 136 78 222 72 379
-5 154 -23 226 -89 352 -79 152 -212 279 -378 361 l-86 42 83 575 c57 389 82
594 80 635 -7 105 -68 194 -167 246 l-45 24 -620 3 -620 4 -89 136 c-191 294
-423 618 -501 700 -120 126 -281 227 -471 295 -156 56 -164 56 -849 51 -577
-5 -637 -7 -710 -25 -255 -62 -445 -234 -731 -664 -63 -93 -125 -183 -138
-200 l-25 -30 -1 80 c0 102 -18 142 -80 173 l-44 22 -658 0 -658 0 25 -50 25
-50 638 -2 637 -3 3 -171 2 -172 -132 -185 c-73 -102 -142 -191 -154 -198 -20
-10 -42 4 -230 148 -267 204 -509 384 -568 422 -42 26 -51 28 -89 19 -150 -34
-245 -139 -282 -315 -8 -37 -15 -93 -15 -123 0 -54 1 -57 55 -110 l55 -55
-127 -127 c-70 -71 -133 -128 -139 -128 -19 0 -24 -28 -8 -34 22 -8 24 -8 24
9 0 18 237 265 254 265 19 0 344 -333 355 -363 7 -17 16 -25 22 -21 7 4 80
-62 175 -157 l164 -164 -157 -5 -158 -6 165 -2 166 -2 49 -51 c59 -59 133
-111 201 -138 l49 -20 -993 0 -992 -1 2 843 3 842 114 3 c103 2 115 5 131 25
18 22 22 22 287 22 147 0 274 4 281 8 6 5 12 17 12 28 0 18 -11 19 -408 19
-403 0 -408 0 -452 -22 -86 -45 -80 27 -80 -994 l0 -901 -61 -7 c-34 -3 -158
-6 -275 -6 l-214 0 5 173 c8 251 25 1153 25 1317 l0 140 -117 0 c-65 0 -243 3
-395 7 l-277 6 -4 36 -4 36 -1 -39 -2 -38 -317 6 c-175 3 -474 9 -664 12
l-346 6 -7 -33 c-3 -19 -60 -383 -126 -809 -66 -426 -122 -785 -125 -797 l-5
-23 -380 0 -380 0 0 175 0 175 -1190 0 -1190 0 0 -45 0 -45 315 0 315 0 0 -95
0 -95 -315 0 -315 0 0 -35 0 -35 -521 0 -521 0 6 23 c65 229 91 377 82 462
-19 186 -150 510 -335 833 -54 93 -69 127 -62 140 5 9 19 90 30 180 11 90 22
166 25 170 2 4 58 2 123 -5 65 -7 195 -15 288 -19 168 -6 171 -6 245 21 176
64 290 185 335 356 17 63 19 175 4 239 -11 51 -378 992 -390 1000 -4 3 -12 25
-19 50 -6 25 -21 60 -32 78 -11 18 -18 35 -15 38 3 3 -12 48 -33 100 -124 303
-344 459 -689 486 -33 3 -35 5 -85 122 -28 66 -56 120 -61 121 -6 2 -32 -1
-60 -5z m13513 -2875 c40 -64 72 -120 72 -125 0 -6 -9 -10 -19 -10 -14 0 -38
32 -86 115 -59 103 -71 135 -46 135 4 0 40 -52 79 -115z m-296 -43 c51 -78 55
-92 30 -92 -15 0 -30 18 -56 64 -20 35 -36 69 -36 75 0 27 28 6 62 -47z
m-2812 27 c0 -10 -144 -191 -274 -346 -60 -71 -96 -92 -96 -55 0 20 71 107
244 299 99 110 126 132 126 102z m2257 -74 c7 -49 22 -132 34 -183 20 -92 20
-187 0 -221 -19 -30 -83 231 -96 391 -8 95 -4 111 28 106 18 -3 23 -14 34 -93z
m277 18 c20 -59 20 -75 -1 -71 -17 3 -47 93 -37 110 11 18 23 6 38 -39z
m-2257 -19 c4 -12 -94 -165 -166 -259 -25 -33 -90 -106 -145 -162 -91 -95
-126 -120 -126 -92 0 6 61 88 136 182 75 95 164 211 198 259 44 64 66 87 80
85 11 -1 21 -7 23 -13z m1686 -124 c44 -147 71 -283 87 -433 13 -121 10 -140
-22 -135 -21 3 -24 10 -30 78 -19 196 -43 347 -74 470 -19 74 -34 139 -34 143
0 5 8 7 18 5 12 -2 27 -36 55 -128z m-272 -107 c20 -116 46 -257 57 -314 11
-57 17 -110 15 -117 -3 -7 -15 -12 -26 -10 -17 2 -24 17 -39 73 -40 157 -88
534 -74 572 16 41 32 -9 67 -204z m-349 116 c55 -157 157 -626 142 -650 -5 -9
-44 -13 -44 -5 0 15 -84 445 -109 561 -35 159 -35 158 -19 153 6 -2 20 -29 30
-59z m-795 -4 c14 -37 -440 -585 -484 -585 -21 0 -12 18 47 103 104 151 395
497 418 497 7 0 15 -7 19 -15z m498 -67 c9 -112 32 -297 56 -447 20 -124 17
-150 -14 -138 -27 10 -63 236 -76 477 -5 96 -7 178 -5 182 3 4 11 8 19 8 9 0
15 -24 20 -82z m-296 15 c39 -145 94 -388 111 -493 16 -99 17 -127 7 -137 -24
-24 -37 5 -63 142 -15 77 -43 224 -63 328 -21 103 -35 190 -32 192 14 15 31 1
40 -32z m95 -1230 c7 -23 7 -23 -101 -23 l-109 0 -19 43 c-36 76 -42 77 -422
77 l-333 0 0 24 c0 16 12 32 38 50 96 68 127 99 203 201 77 105 345 504 384
572 l19 32 167 -477 c91 -262 169 -487 173 -499z m-5120 223 l-7 -246 -40 0
c-38 0 -39 1 -34 28 3 15 22 127 43 249 21 122 40 220 42 219 1 -2 0 -114 -4
-250z m-8991 -1176 c-64 -82 -117 -149 -119 -147 -1 1 9 67 22 147 13 80 24
146 24 148 0 1 43 2 95 2 l95 0 -117 -150z m7563 118 c-46 -251 -776 -4992
-772 -5016 12 -82 85 -142 172 -142 33 0 45 -4 41 -12 -2 -7 -10 -39 -17 -70
-7 -32 -17 -58 -22 -58 -4 0 -7 -4 -5 -9 1 -5 -54 -105 -123 -223 l-124 -215
-896 -7 c-680 -6 -6821 2 -6826 8 -1 0 142 883 317 1961 175 1078 319 1965
319 1970 1 22 258 -490 813 -1625 l586 -1195 -6 -52 c-4 -43 -13 -60 -44 -94
-22 -23 -39 -44 -39 -45 0 -2 -36 -49 -81 -106 -74 -95 -159 -224 -159 -242 0
-6 90 40 229 117 l53 30 -6 -39 c-7 -38 -6 -40 28 -52 42 -15 48 -47 15 -75
-23 -21 -120 -41 -149 -32 -11 4 -20 2 -20 -2 0 -5 -44 -17 -97 -27 -181 -34
-484 -118 -470 -132 1 -2 304 -60 672 -129 369 -69 675 -127 680 -129 7 -2 29
77 54 193 24 108 78 320 121 471 43 151 86 308 96 348 10 39 21 72 24 72 3 0
6 8 7 18 1 9 99 359 218 777 l216 760 79 550 79 550 87 220 c155 395 369 963
498 1320 70 193 131 360 136 373 l10 22 2156 0 2156 0 -6 -32z m-5927 -208
c-4 -30 -90 -640 -189 -1355 -99 -715 -182 -1304 -183 -1309 -2 -4 -130 350
-286 787 l-282 796 473 569 c260 313 474 569 474 568 1 0 -2 -26 -7 -56z
m16489 -137 l232 -137 0 -166 c-1 -126 -3 -160 -12 -145 -19 36 -72 86 -113
108 -62 34 -182 30 -254 -7 -29 -15 -75 -47 -100 -71 l-46 -44 -29 110 c-15
60 -32 112 -37 115 -13 8 -12 2 21 -125 l29 -115 -50 -100 c-28 -59 -64 -154
-83 -226 -19 -69 -35 -122 -35 -118 -1 4 6 56 15 114 12 81 24 124 49 174 38
73 65 166 65 220 -1 19 -9 59 -19 89 -19 54 -19 54 10 255 16 110 32 213 35
229 l6 27 41 -25 c23 -14 147 -87 275 -162z m-504 -1079 c-24 -132 -30 -434
-10 -559 18 -121 56 -253 101 -359 48 -108 150 -259 226 -331 35 -33 67 -67
71 -75 4 -10 7 -10 7 -2 1 7 14 12 32 12 17 0 38 4 48 10 17 8 19 -1 30 -119
17 -185 61 -798 61 -848 l0 -43 -263 0 -262 0 -114 1098 c-62 603 -115 1108
-118 1122 -4 22 1 27 47 43 59 21 122 74 140 117 20 49 22 29 4 -66z m-2940
-101 c14 -91 286 -2610 284 -2627 -2 -15 -243 1193 -526 2642 -4 22 -3 22 116
22 l120 0 6 -37z m1409 -65 c8 -134 42 -254 84 -300 28 -31 83 -21 310 58 120
41 225 76 233 77 8 1 17 5 20 8 3 3 46 22 95 43 117 50 257 120 323 162 28 19
52 30 52 26 0 -5 45 -503 100 -1107 55 -604 100 -1102 100 -1107 0 -4 -34 -8
-75 -8 l-75 0 0 -175 0 -174 92 -3 93 -3 62 -680 c34 -374 62 -694 63 -712 0
-31 -2 -32 -45 -35 l-45 -3 54 -75 c40 -56 55 -86 58 -118 l4 -42 -1098 0
c-604 0 -1098 3 -1098 8 -1 4 -103 964 -228 2135 l-228 2127 572 0 571 0 6
-102z m-2976 -120 c-3 -8 -6 -5 -6 6 -1 11 2 17 5 13 3 -3 4 -12 1 -19z m5248
-1391 l7 -638 -78 3 -79 3 -7 135 c-10 183 -47 715 -57 820 l-9 85 79 80 c43
44 91 96 106 116 15 21 29 36 29 35 1 0 5 -288 9 -639z m-3318 -1762 c-1 -11
-51 119 -112 289 -60 170 -111 313 -113 317 -2 4 31 15 72 25 63 15 76 21 77
38 1 12 19 -130 40 -314 21 -184 37 -344 36 -355z m-900 293 c6 -7 20 -34 31
-61 18 -41 19 -46 4 -38 -37 20 -82 84 -82 116 0 12 4 14 18 6 10 -5 23 -16
29 -23z m-1310 -120 c23 -25 56 -98 48 -106 -8 -8 -55 39 -71 70 -28 54 -14
75 23 36z m1953 -118 c39 -39 14 -100 -41 -100 -56 0 -82 73 -37 104 30 21 54
20 78 -4z m-1300 -130 c24 -24 26 -57 3 -82 -16 -18 -59 -24 -79 -10 -18 12
-35 52 -28 65 29 50 70 61 104 27z m-5956 -261 c31 -25 33 -47 5 -83 -25 -31
-61 -34 -89 -6 -27 27 -25 56 5 85 29 30 45 31 79 4z m-6065 -55 c42 -9 58
-37 37 -69 -35 -53 -106 -34 -106 29 0 48 7 52 69 40z m7849 -30 c44 -31 17
-104 -39 -104 -36 0 -59 24 -59 60 0 30 30 60 60 60 9 0 26 -7 38 -16z"/>
<path d="M4745 11196 c-41 -18 -112 -98 -137 -153 -22 -49 -37 -193 -21 -193
6 0 13 32 16 70 10 124 72 225 162 266 28 13 41 23 30 23 -11 0 -33 -6 -50
-13z"/>
<path d="M20031 10938 c1 -117 4 -192 9 -178 4 14 8 79 9 145 l1 120 38 -110
c45 -128 80 -210 87 -203 3 3 -24 90 -60 193 -36 103 -65 196 -65 206 0 10 -4
21 -10 24 -7 4 -10 -64 -9 -197z"/>
<path d="M3041 10981 c-2 -28 23 -141 30 -141 9 0 3 37 -17 110 -7 25 -13 39
-13 31z"/>
<path d="M3070 10815 c2 -53 57 -289 69 -293 9 -3 11 2 8 14 -3 11 -18 78 -33
149 -25 119 -45 178 -44 130z"/>
<path d="M4593 10785 c6 -41 35 -124 81 -227 l16 -38 -25 0 c-14 0 -25 -4 -25
-10 0 -5 14 -10 30 -10 30 0 33 -5 95 -136 36 -75 65 -138 65 -140 0 -2 -31
-4 -70 -4 -40 0 -70 -4 -70 -10 0 -6 32 -10 75 -10 l75 0 84 -167 c47 -93 85
-164 85 -159 1 8 -67 167 -119 281 -207 448 -251 549 -270 628 -16 61 -35 63
-27 2z"/>
<path d="M17187 10582 c-91 -288 -181 -591 -176 -596 5 -5 388 21 504 34 88
10 91 10 -312 -6 l-163 -7 15 49 c8 27 27 92 41 144 15 52 56 198 91 323 36
126 63 230 61 233 -3 2 -30 -76 -61 -174z"/>
<path d="M3134 10483 c3 -10 15 -70 27 -133 21 -110 32 -141 45 -128 11 12
-50 278 -64 278 -8 0 -11 -7 -8 -17z"/>
<path d="M3223 10048 c75 -385 203 -949 206 -908 1 13 -163 840 -199 1008 -7
30 -17 52 -25 52 -9 0 -5 -37 18 -152z"/>
<path d="M4778 9903 c18 -2 45 -2 60 0 15 2 0 4 -33 4 -33 0 -45 -2 -27 -4z"/>
<path d="M4883 9893 c9 -2 25 -2 35 0 9 3 1 5 -18 5 -19 0 -27 -2 -17 -5z"/>
<path d="M18590 9799 c-74 -22 -190 -57 -257 -79 -67 -22 -129 -40 -138 -40
-8 0 -65 -16 -127 -36 -95 -31 -122 -36 -184 -32 l-73 3 2 -28 c2 -28 0 -29
-313 -156 -380 -153 -753 -312 -747 -318 2 -2 58 17 123 43 66 25 135 51 154
56 19 6 40 14 45 18 6 4 78 35 160 68 83 33 246 101 363 151 117 50 217 91
221 91 5 0 11 -13 14 -30 11 -55 38 -60 300 -60 197 0 237 -2 247 -15 10 -12
11 -82 6 -318 -3 -166 -8 -331 -10 -367 l-5 -65 9 55 c12 80 32 349 39 540 l6
165 119 5 c152 6 149 3 171 195 9 77 18 152 21 168 3 15 2 26 -3 26 -4 -1 -69
-19 -143 -40z"/>
<path d="M4591 9663 l-12 -58 -142 5 c-78 3 -149 2 -157 -2 -8 -4 54 -8 138
-8 l153 0 -6 -22 c-21 -69 -76 -150 -161 -235 l-92 -93 -204 -1 c-111 0 -212
-5 -223 -10 -13 -6 55 -8 186 -6 206 2 207 2 176 -16 -47 -29 -166 -75 -243
-94 -54 -13 -114 -17 -271 -18 -137 0 -195 -3 -180 -10 12 -5 112 -9 222 -9
232 0 293 12 451 89 108 52 233 162 291 257 21 33 46 64 58 68 15 7 16 9 3 9
-15 1 -14 5 3 51 18 46 37 160 27 160 -2 0 -10 -26 -17 -57z"/>
<path d="M4845 9509 c-4 -5 22 -9 61 -9 37 0 65 2 63 4 -10 9 -119 14 -124 5z"/>
<path d="M9770 9051 c107 -105 199 -191 203 -191 11 0 -2 86 -18 126 -23 57
-92 110 -239 184 l-141 71 195 -190z"/>
<path d="M3128 8354 c-203 -369 -354 -739 -408 -999 -20 -96 -23 -226 -80
-2995 -73 -3582 -69 -3450 -84 -3450 -10 0 -106 -387 -106 -426 0 -8 79 -13
268 -18 147 -3 328 -9 402 -12 l135 -6 3 54 c3 65 40 402 48 441 5 25 9 28 35
23 96 -19 86 -22 93 31 4 26 119 1159 256 2516 138 1358 252 2472 255 2476 2
4 22 190 45 412 22 222 41 413 43 424 1 11 42 -156 91 -370 49 -215 97 -415
106 -445 22 -65 379 -1598 393 -1685 22 -134 521 -2250 693 -2935 134 -539
128 -518 162 -522 26 -3 27 -5 38 -96 7 -51 15 -135 19 -187 l7 -95 649 0
c357 0 649 2 649 5 0 11 -154 93 -251 135 -57 24 -106 47 -109 51 -3 3 -18 9
-35 13 -16 4 -48 15 -70 25 -22 10 -66 27 -99 37 -32 10 -61 25 -63 31 -3 7 6
26 20 42 41 49 47 149 11 169 -12 7 -140 857 -555 3693 -297 2026 -542 3698
-545 3715 l-6 32 -151 6 c-84 3 -386 8 -672 11 -286 3 -655 8 -821 11 l-301 7
-65 -119z m3046 -7391 c-7 -16 -14 -37 -14 -47 0 -28 -6 -16 -14 26 -7 36 -4
40 36 47 4 0 0 -11 -8 -26z m56 -72 c-6 -20 -19 -47 -30 -61 l-20 -25 0 36 c0
38 16 95 33 117 17 22 29 -24 17 -67z m-473 -247 c14 -22 14 -26 -1 -50 -10
-14 -24 -28 -32 -31 -25 -9 -63 14 -70 43 -6 22 -2 32 19 50 31 27 61 22 84
-12z"/>
<path d="M13490 7845 l0 -185 1190 0 1190 0 0 45 0 45 -315 0 -315 0 0 95 0
95 315 0 315 0 0 45 0 45 -1190 0 -1190 0 0 -185z"/>
<path d="M20418 7313 c83 -2 221 -2 305 0 83 1 15 3 -153 3 -168 0 -236 -2
-152 -3z"/>
<path d="M20247 7253 c18 -2 50 -2 70 0 21 2 7 4 -32 4 -38 0 -55 -2 -38 -4z"/>
<path d="M40 389 c73 -12 2390 -11 2390 1 0 7 -409 9 -1217 8 -670 -1 -1198
-5 -1173 -9z"/>
<path d="M3250 390 c0 -7 388 -10 1145 -10 757 0 1145 3 1145 10 0 7 -388 10
-1145 10 -757 0 -1145 -3 -1145 -10z"/>
</g>
</svg>
